<mxfile host="Electron" modified="2023-12-14T00:56:05.209Z" agent="Mozilla/5.0 (Windows NT 10.0; Win64; x64) AppleWebKit/537.36 (KHTML, like Gecko) draw.io/22.1.2 Chrome/114.0.5735.289 Electron/25.9.4 Safari/537.36" etag="LfUzREuJ5vHAkjF6ZQHi" version="22.1.2" type="device">
  <diagram name="Page-1" id="TRbkl2DeFe1Q-SmQH3bL">
    <mxGraphModel dx="2472" dy="1612" grid="0" gridSize="10" guides="1" tooltips="1" connect="1" arrows="1" fold="1" page="0" pageScale="1" pageWidth="1100" pageHeight="850" math="0" shadow="0">
      <root>
        <mxCell id="0" />
        <mxCell id="1" parent="0" />
        <mxCell id="KyZ3c5nSkbDw5dYKaF3H-59" value="ref" style="shape=umlFrame;whiteSpace=wrap;html=1;pointerEvents=0;" parent="1" vertex="1">
          <mxGeometry x="1271.5" y="630" width="276" height="83" as="geometry" />
        </mxCell>
        <mxCell id="KyZ3c5nSkbDw5dYKaF3H-61" value="ref" style="shape=umlFrame;whiteSpace=wrap;html=1;pointerEvents=0;" parent="1" vertex="1">
          <mxGeometry x="1283.5" y="849" width="276" height="83" as="geometry" />
        </mxCell>
        <mxCell id="KyZ3c5nSkbDw5dYKaF3H-65" value="alt" style="shape=umlFrame;whiteSpace=wrap;html=1;pointerEvents=0;" parent="1" vertex="1">
          <mxGeometry x="2720" y="347" width="711" height="476" as="geometry" />
        </mxCell>
        <mxCell id="KyZ3c5nSkbDw5dYKaF3H-16" value="alt" style="shape=umlFrame;whiteSpace=wrap;html=1;pointerEvents=0;" parent="1" vertex="1">
          <mxGeometry x="669" y="538" width="924" height="492" as="geometry" />
        </mxCell>
        <mxCell id="KyZ3c5nSkbDw5dYKaF3H-1" value="" style="shape=umlLifeline;perimeter=lifelinePerimeter;whiteSpace=wrap;html=1;container=1;dropTarget=0;collapsible=0;recursiveResize=0;outlineConnect=0;portConstraint=eastwest;newEdgeStyle={&quot;curved&quot;:0,&quot;rounded&quot;:0};participant=umlActor;opacity=30;" parent="1" vertex="1">
          <mxGeometry x="51" y="148" width="20" height="1116" as="geometry" />
        </mxCell>
        <mxCell id="KyZ3c5nSkbDw5dYKaF3H-9" value="" style="html=1;points=[[0,0,0,0,5],[0,1,0,0,-5],[1,0,0,0,5],[1,1,0,0,-5]];perimeter=orthogonalPerimeter;outlineConnect=0;targetShapes=umlLifeline;portConstraint=eastwest;newEdgeStyle={&quot;curved&quot;:0,&quot;rounded&quot;:0};" parent="KyZ3c5nSkbDw5dYKaF3H-1" vertex="1">
          <mxGeometry x="4" y="86" width="10" height="41" as="geometry" />
        </mxCell>
        <mxCell id="KyZ3c5nSkbDw5dYKaF3H-2" value="User" style="text;align=center;fontStyle=1;verticalAlign=middle;spacingLeft=3;spacingRight=3;strokeColor=none;rotatable=0;points=[[0,0.5],[1,0.5]];portConstraint=eastwest;html=1;" parent="1" vertex="1">
          <mxGeometry x="21" y="112" width="80" height="26" as="geometry" />
        </mxCell>
        <mxCell id="KyZ3c5nSkbDw5dYKaF3H-3" value="TestUI" style="shape=umlLifeline;perimeter=lifelinePerimeter;whiteSpace=wrap;html=1;container=1;dropTarget=0;collapsible=0;recursiveResize=0;outlineConnect=0;portConstraint=eastwest;newEdgeStyle={&quot;curved&quot;:0,&quot;rounded&quot;:0};participant=umlBoundary;opacity=30;" parent="1" vertex="1">
          <mxGeometry x="368" y="127" width="91" height="1135" as="geometry" />
        </mxCell>
        <mxCell id="KyZ3c5nSkbDw5dYKaF3H-10" value="" style="html=1;points=[[0,0,0,0,5],[0,1,0,0,-5],[1,0,0,0,5],[1,1,0,0,-5]];perimeter=orthogonalPerimeter;outlineConnect=0;targetShapes=umlLifeline;portConstraint=eastwest;newEdgeStyle={&quot;curved&quot;:0,&quot;rounded&quot;:0};" parent="KyZ3c5nSkbDw5dYKaF3H-3" vertex="1">
          <mxGeometry x="39" y="98" width="10" height="80" as="geometry" />
        </mxCell>
        <mxCell id="KyZ3c5nSkbDw5dYKaF3H-4" value="TestWindow" style="shape=umlLifeline;perimeter=lifelinePerimeter;whiteSpace=wrap;html=1;container=1;dropTarget=0;collapsible=0;recursiveResize=0;outlineConnect=0;portConstraint=eastwest;newEdgeStyle={&quot;curved&quot;:0,&quot;rounded&quot;:0};opacity=30;" parent="1" vertex="1">
          <mxGeometry x="759" y="126" width="100" height="1135" as="geometry" />
        </mxCell>
        <mxCell id="KyZ3c5nSkbDw5dYKaF3H-12" value="" style="html=1;points=[[0,0,0,0,5],[0,1,0,0,-5],[1,0,0,0,5],[1,1,0,0,-5]];perimeter=orthogonalPerimeter;outlineConnect=0;targetShapes=umlLifeline;portConstraint=eastwest;newEdgeStyle={&quot;curved&quot;:0,&quot;rounded&quot;:0};" parent="KyZ3c5nSkbDw5dYKaF3H-4" vertex="1">
          <mxGeometry x="44" y="134" width="10" height="635" as="geometry" />
        </mxCell>
        <mxCell id="KyZ3c5nSkbDw5dYKaF3H-14" value="" style="html=1;points=[[0,0,0,0,5],[0,1,0,0,-5],[1,0,0,0,5],[1,1,0,0,-5]];perimeter=orthogonalPerimeter;outlineConnect=0;targetShapes=umlLifeline;portConstraint=eastwest;newEdgeStyle={&quot;curved&quot;:0,&quot;rounded&quot;:0};" parent="KyZ3c5nSkbDw5dYKaF3H-4" vertex="1">
          <mxGeometry x="52" y="189" width="10" height="561" as="geometry" />
        </mxCell>
        <mxCell id="KyZ3c5nSkbDw5dYKaF3H-15" value="padPlaced()" style="html=1;align=left;spacingLeft=2;endArrow=block;rounded=0;edgeStyle=orthogonalEdgeStyle;curved=0;rounded=0;" parent="KyZ3c5nSkbDw5dYKaF3H-4" target="KyZ3c5nSkbDw5dYKaF3H-14" edge="1">
          <mxGeometry relative="1" as="geometry">
            <mxPoint x="54" y="168" as="sourcePoint" />
            <Array as="points">
              <mxPoint x="84" y="198" />
            </Array>
          </mxGeometry>
        </mxCell>
        <mxCell id="KyZ3c5nSkbDw5dYKaF3H-11" value="User Pressed Pad Placement Button" style="html=1;verticalAlign=bottom;endArrow=block;curved=0;rounded=0;" parent="1" edge="1">
          <mxGeometry width="80" relative="1" as="geometry">
            <mxPoint x="60.222222222222285" y="258" as="sourcePoint" />
            <mxPoint x="406" y="258" as="targetPoint" />
          </mxGeometry>
        </mxCell>
        <mxCell id="KyZ3c5nSkbDw5dYKaF3H-13" value="released()" style="html=1;verticalAlign=bottom;endArrow=block;curved=0;rounded=0;fillColor=#a20025;strokeColor=#6F0000;strokeWidth=3;" parent="1" edge="1">
          <mxGeometry width="80" relative="1" as="geometry">
            <mxPoint x="412.7222222222222" y="282.0000000000001" as="sourcePoint" />
            <mxPoint x="803" y="282.0000000000001" as="targetPoint" />
          </mxGeometry>
        </mxCell>
        <mxCell id="KyZ3c5nSkbDw5dYKaF3H-17" value="[childPad _button Pressed]" style="text;html=1;align=center;verticalAlign=middle;resizable=0;points=[];autosize=1;strokeColor=none;fillColor=none;labelBackgroundColor=#666666;" parent="1" vertex="1">
          <mxGeometry x="729" y="553" width="161" height="26" as="geometry" />
        </mxCell>
        <mxCell id="KyZ3c5nSkbDw5dYKaF3H-18" value="TestController" style="shape=umlLifeline;perimeter=lifelinePerimeter;whiteSpace=wrap;html=1;container=1;dropTarget=0;collapsible=0;recursiveResize=0;outlineConnect=0;portConstraint=eastwest;newEdgeStyle={&quot;curved&quot;:0,&quot;rounded&quot;:0};opacity=30;" parent="1" vertex="1">
          <mxGeometry x="1353" y="127" width="100" height="1132" as="geometry" />
        </mxCell>
        <mxCell id="KyZ3c5nSkbDw5dYKaF3H-19" value="" style="html=1;points=[[0,0,0,0,5],[0,1,0,0,-5],[1,0,0,0,5],[1,1,0,0,-5]];perimeter=orthogonalPerimeter;outlineConnect=0;targetShapes=umlLifeline;portConstraint=eastwest;newEdgeStyle={&quot;curved&quot;:0,&quot;rounded&quot;:0};" parent="KyZ3c5nSkbDw5dYKaF3H-18" vertex="1">
          <mxGeometry x="44.5" y="457" width="10" height="178" as="geometry" />
        </mxCell>
        <mxCell id="KyZ3c5nSkbDw5dYKaF3H-20" value="placePads(CHILD)" style="html=1;verticalAlign=bottom;endArrow=block;curved=0;rounded=0;" parent="1" edge="1">
          <mxGeometry x="0.0009" width="80" relative="1" as="geometry">
            <mxPoint x="821.5" y="598.9999999999998" as="sourcePoint" />
            <mxPoint x="1392.5" y="599" as="targetPoint" />
            <Array as="points">
              <mxPoint x="972.5" y="599" />
            </Array>
            <mxPoint as="offset" />
          </mxGeometry>
        </mxCell>
        <mxCell id="KyZ3c5nSkbDw5dYKaF3H-21" value="[adultPad _button Pressed]" style="text;html=1;align=center;verticalAlign=middle;resizable=0;points=[];autosize=1;strokeColor=none;fillColor=none;labelBackgroundColor=#666666;" parent="1" vertex="1">
          <mxGeometry x="739.5" y="745" width="163" height="26" as="geometry" />
        </mxCell>
        <mxCell id="KyZ3c5nSkbDw5dYKaF3H-23" value="placePads(ADULT)" style="html=1;verticalAlign=bottom;endArrow=block;curved=0;rounded=0;" parent="1" edge="1">
          <mxGeometry width="80" relative="1" as="geometry">
            <mxPoint x="820.5" y="830" as="sourcePoint" />
            <mxPoint x="1393.5" y="830" as="targetPoint" />
          </mxGeometry>
        </mxCell>
        <mxCell id="KyZ3c5nSkbDw5dYKaF3H-31" value="" style="html=1;points=[[0,0,0,0,5],[0,1,0,0,-5],[1,0,0,0,5],[1,1,0,0,-5]];perimeter=orthogonalPerimeter;outlineConnect=0;targetShapes=umlLifeline;portConstraint=eastwest;newEdgeStyle={&quot;curved&quot;:0,&quot;rounded&quot;:0};" parent="1" vertex="1">
          <mxGeometry x="1397.5" y="799" width="10" height="178" as="geometry" />
        </mxCell>
        <mxCell id="KyZ3c5nSkbDw5dYKaF3H-41" value="alt" style="shape=umlFrame;whiteSpace=wrap;html=1;pointerEvents=0;" parent="1" vertex="1">
          <mxGeometry x="2206" y="269" width="1249" height="592" as="geometry" />
        </mxCell>
        <mxCell id="KyZ3c5nSkbDw5dYKaF3H-42" value="AEDController" style="shape=umlLifeline;perimeter=lifelinePerimeter;whiteSpace=wrap;html=1;container=1;dropTarget=0;collapsible=0;recursiveResize=0;outlineConnect=0;portConstraint=eastwest;newEdgeStyle={&quot;curved&quot;:0,&quot;rounded&quot;:0};opacity=30;" parent="1" vertex="1">
          <mxGeometry x="2780" y="77" width="100" height="816" as="geometry" />
        </mxCell>
        <mxCell id="KyZ3c5nSkbDw5dYKaF3H-43" value="TestController" style="shape=umlLifeline;perimeter=lifelinePerimeter;whiteSpace=wrap;html=1;container=1;dropTarget=0;collapsible=0;recursiveResize=0;outlineConnect=0;portConstraint=eastwest;newEdgeStyle={&quot;curved&quot;:0,&quot;rounded&quot;:0};opacity=30;" parent="1" vertex="1">
          <mxGeometry x="2257" y="77" width="100" height="819" as="geometry" />
        </mxCell>
        <mxCell id="KyZ3c5nSkbDw5dYKaF3H-44" value="" style="html=1;points=[[0,0,0,0,5],[0,1,0,0,-5],[1,0,0,0,5],[1,1,0,0,-5]];perimeter=orthogonalPerimeter;outlineConnect=0;targetShapes=umlLifeline;portConstraint=eastwest;newEdgeStyle={&quot;curved&quot;:0,&quot;rounded&quot;:0};" parent="KyZ3c5nSkbDw5dYKaF3H-43" vertex="1">
          <mxGeometry x="45" y="103" width="10" height="178" as="geometry" />
        </mxCell>
        <mxCell id="KyZ3c5nSkbDw5dYKaF3H-45" value="[currentStep == ELECTRODE_PAD_PLACEMENT]" style="text;html=1;align=center;verticalAlign=middle;resizable=0;points=[];autosize=1;strokeColor=none;fillColor=none;labelBackgroundColor=#666666;" parent="1" vertex="1">
          <mxGeometry x="2272" y="282" width="291" height="26" as="geometry" />
        </mxCell>
        <mxCell id="KyZ3c5nSkbDw5dYKaF3H-46" value="" style="html=1;points=[[0,0,0,0,5],[0,1,0,0,-5],[1,0,0,0,5],[1,1,0,0,-5]];perimeter=orthogonalPerimeter;outlineConnect=0;targetShapes=umlLifeline;portConstraint=eastwest;newEdgeStyle={&quot;curved&quot;:0,&quot;rounded&quot;:0};" parent="1" vertex="1">
          <mxGeometry x="2825" y="182" width="10" height="80" as="geometry" />
        </mxCell>
        <mxCell id="KyZ3c5nSkbDw5dYKaF3H-47" value="getCurrentStep()" style="html=1;verticalAlign=bottom;endArrow=block;curved=0;rounded=0;" parent="1" edge="1">
          <mxGeometry width="80" relative="1" as="geometry">
            <mxPoint x="2312" y="211" as="sourcePoint" />
            <mxPoint x="2825" y="211" as="targetPoint" />
          </mxGeometry>
        </mxCell>
        <mxCell id="KyZ3c5nSkbDw5dYKaF3H-48" value="return currentStep" style="html=1;verticalAlign=bottom;endArrow=open;dashed=1;endSize=8;curved=0;rounded=0;" parent="1" edge="1">
          <mxGeometry relative="1" as="geometry">
            <mxPoint x="2825" y="239" as="sourcePoint" />
            <mxPoint x="2312" y="239" as="targetPoint" />
          </mxGeometry>
        </mxCell>
        <mxCell id="KyZ3c5nSkbDw5dYKaF3H-49" value="" style="html=1;points=[[0,0,0,0,5],[0,1,0,0,-5],[1,0,0,0,5],[1,1,0,0,-5]];perimeter=orthogonalPerimeter;outlineConnect=0;targetShapes=umlLifeline;portConstraint=eastwest;newEdgeStyle={&quot;curved&quot;:0,&quot;rounded&quot;:0};" parent="1" vertex="1">
          <mxGeometry x="2825" y="282" width="10" height="303" as="geometry" />
        </mxCell>
        <mxCell id="KyZ3c5nSkbDw5dYKaF3H-50" value="placePads(type)" style="html=1;verticalAlign=bottom;endArrow=block;curved=0;rounded=0;" parent="1" edge="1">
          <mxGeometry width="80" relative="1" as="geometry">
            <mxPoint x="2312" y="331" as="sourcePoint" />
            <mxPoint x="2825" y="331" as="targetPoint" />
          </mxGeometry>
        </mxCell>
        <mxCell id="KyZ3c5nSkbDw5dYKaF3H-58" value="ElectrodePads" style="shape=umlLifeline;perimeter=lifelinePerimeter;whiteSpace=wrap;html=1;container=1;dropTarget=0;collapsible=0;recursiveResize=0;outlineConnect=0;portConstraint=eastwest;newEdgeStyle={&quot;curved&quot;:0,&quot;rounded&quot;:0};opacity=30;" parent="1" vertex="1">
          <mxGeometry x="3056" y="77" width="100" height="820" as="geometry" />
        </mxCell>
        <mxCell id="KyZ3c5nSkbDw5dYKaF3H-68" value="" style="html=1;points=[[0,0,0,0,5],[0,1,0,0,-5],[1,0,0,0,5],[1,1,0,0,-5]];perimeter=orthogonalPerimeter;outlineConnect=0;targetShapes=umlLifeline;portConstraint=eastwest;newEdgeStyle={&quot;curved&quot;:0,&quot;rounded&quot;:0};" parent="KyZ3c5nSkbDw5dYKaF3H-58" vertex="1">
          <mxGeometry x="45" y="329" width="10" height="27" as="geometry" />
        </mxCell>
        <mxCell id="KyZ3c5nSkbDw5dYKaF3H-60" value="PlacePads(CHILD)" style="text;html=1;align=center;verticalAlign=middle;resizable=0;points=[];autosize=1;strokeColor=#006EAF;fillColor=#1ba1e2;fontColor=#ffffff;" parent="1" vertex="1">
          <mxGeometry x="1350" y="658.5" width="119" height="26" as="geometry" />
        </mxCell>
        <mxCell id="KyZ3c5nSkbDw5dYKaF3H-62" value="PlacePads(ADULT)" style="text;html=1;align=center;verticalAlign=middle;resizable=0;points=[];autosize=1;strokeColor=#006EAF;fillColor=#1ba1e2;fontColor=#ffffff;" parent="1" vertex="1">
          <mxGeometry x="1361" y="877.5" width="122" height="26" as="geometry" />
        </mxCell>
        <mxCell id="KyZ3c5nSkbDw5dYKaF3H-63" value="sd PadPlacementButtonPressed" style="shape=umlFrame;whiteSpace=wrap;html=1;pointerEvents=0;width=233;height=20;" parent="1" vertex="1">
          <mxGeometry x="-74" y="28" width="2120" height="1235" as="geometry" />
        </mxCell>
        <mxCell id="KyZ3c5nSkbDw5dYKaF3H-64" value="sd PlacePads(type)" style="shape=umlFrame;whiteSpace=wrap;html=1;pointerEvents=0;width=160;height=28;" parent="1" vertex="1">
          <mxGeometry x="2113" y="28" width="1365" height="869" as="geometry" />
        </mxCell>
        <mxCell id="KyZ3c5nSkbDw5dYKaF3H-66" value="[correctlyPlaced == True]" style="text;html=1;align=center;verticalAlign=middle;resizable=0;points=[];autosize=1;strokeColor=none;fillColor=none;labelBackgroundColor=#666666;" parent="1" vertex="1">
          <mxGeometry x="2763" y="380" width="151" height="26" as="geometry" />
        </mxCell>
        <mxCell id="KyZ3c5nSkbDw5dYKaF3H-67" value="Patient" style="shape=umlLifeline;perimeter=lifelinePerimeter;whiteSpace=wrap;html=1;container=1;dropTarget=0;collapsible=0;recursiveResize=0;outlineConnect=0;portConstraint=eastwest;newEdgeStyle={&quot;curved&quot;:0,&quot;rounded&quot;:0};opacity=30;" parent="1" vertex="1">
          <mxGeometry x="3249" y="77" width="100" height="822" as="geometry" />
        </mxCell>
        <mxCell id="KyZ3c5nSkbDw5dYKaF3H-74" value="" style="html=1;points=[[0,0,0,0,5],[0,1,0,0,-5],[1,0,0,0,5],[1,1,0,0,-5]];perimeter=orthogonalPerimeter;outlineConnect=0;targetShapes=umlLifeline;portConstraint=eastwest;newEdgeStyle={&quot;curved&quot;:0,&quot;rounded&quot;:0};" parent="KyZ3c5nSkbDw5dYKaF3H-67" vertex="1">
          <mxGeometry x="45" y="419.5" width="10" height="27" as="geometry" />
        </mxCell>
        <mxCell id="KyZ3c5nSkbDw5dYKaF3H-75" value="" style="html=1;points=[[0,0,0,0,5],[0,1,0,0,-5],[1,0,0,0,5],[1,1,0,0,-5]];perimeter=orthogonalPerimeter;outlineConnect=0;targetShapes=umlLifeline;portConstraint=eastwest;newEdgeStyle={&quot;curved&quot;:0,&quot;rounded&quot;:0};" parent="KyZ3c5nSkbDw5dYKaF3H-67" vertex="1">
          <mxGeometry x="45" y="464.5" width="10" height="27" as="geometry" />
        </mxCell>
        <mxCell id="KyZ3c5nSkbDw5dYKaF3H-69" value="setPadType(type)" style="html=1;verticalAlign=bottom;endArrow=block;curved=0;rounded=0;" parent="1" edge="1">
          <mxGeometry width="80" relative="1" as="geometry">
            <mxPoint x="2835" y="420" as="sourcePoint" />
            <mxPoint x="3101" y="420" as="targetPoint" />
          </mxGeometry>
        </mxCell>
        <mxCell id="KyZ3c5nSkbDw5dYKaF3H-70" value="" style="html=1;points=[[0,0,0,0,5],[0,1,0,0,-5],[1,0,0,0,5],[1,1,0,0,-5]];perimeter=orthogonalPerimeter;outlineConnect=0;targetShapes=umlLifeline;portConstraint=eastwest;newEdgeStyle={&quot;curved&quot;:0,&quot;rounded&quot;:0};" parent="1" vertex="1">
          <mxGeometry x="3101" y="451" width="10" height="27" as="geometry" />
        </mxCell>
        <mxCell id="KyZ3c5nSkbDw5dYKaF3H-71" value="setPadPlacement(true)" style="html=1;verticalAlign=bottom;endArrow=block;curved=0;rounded=0;" parent="1" edge="1">
          <mxGeometry width="80" relative="1" as="geometry">
            <mxPoint x="2835" y="465" as="sourcePoint" />
            <mxPoint x="3101" y="465" as="targetPoint" />
          </mxGeometry>
        </mxCell>
        <mxCell id="KyZ3c5nSkbDw5dYKaF3H-76" value="setHasPadsOn(true)" style="html=1;verticalAlign=bottom;endArrow=block;curved=0;rounded=0;" parent="1" edge="1">
          <mxGeometry width="80" relative="1" as="geometry">
            <mxPoint x="2835" y="510.76" as="sourcePoint" />
            <mxPoint x="3294" y="510.76" as="targetPoint" />
          </mxGeometry>
        </mxCell>
        <mxCell id="KyZ3c5nSkbDw5dYKaF3H-77" value="setImproperPlacement(false)" style="html=1;verticalAlign=bottom;endArrow=block;curved=0;rounded=0;" parent="1" edge="1">
          <mxGeometry width="80" relative="1" as="geometry">
            <mxPoint x="2835" y="551" as="sourcePoint" />
            <mxPoint x="3294" y="551" as="targetPoint" />
          </mxGeometry>
        </mxCell>
        <mxCell id="KyZ3c5nSkbDw5dYKaF3H-78" value="[else]" style="text;html=1;align=center;verticalAlign=middle;resizable=0;points=[];autosize=1;strokeColor=none;fillColor=none;labelBackgroundColor=#666666;" parent="1" vertex="1">
          <mxGeometry x="2806.5" y="608" width="47" height="26" as="geometry" />
        </mxCell>
        <mxCell id="KyZ3c5nSkbDw5dYKaF3H-79" value="" style="html=1;points=[[0,0,0,0,5],[0,1,0,0,-5],[1,0,0,0,5],[1,1,0,0,-5]];perimeter=orthogonalPerimeter;outlineConnect=0;targetShapes=umlLifeline;portConstraint=eastwest;newEdgeStyle={&quot;curved&quot;:0,&quot;rounded&quot;:0};" parent="1" vertex="1">
          <mxGeometry x="3101" y="664" width="10" height="27" as="geometry" />
        </mxCell>
        <mxCell id="KyZ3c5nSkbDw5dYKaF3H-80" value="setPadPlacement(false)" style="html=1;verticalAlign=bottom;endArrow=block;curved=0;rounded=0;" parent="1" edge="1">
          <mxGeometry width="80" relative="1" as="geometry">
            <mxPoint x="2835" y="678" as="sourcePoint" />
            <mxPoint x="3101" y="678" as="targetPoint" />
          </mxGeometry>
        </mxCell>
        <mxCell id="KyZ3c5nSkbDw5dYKaF3H-81" value="" style="html=1;points=[[0,0,0,0,5],[0,1,0,0,-5],[1,0,0,0,5],[1,1,0,0,-5]];perimeter=orthogonalPerimeter;outlineConnect=0;targetShapes=umlLifeline;portConstraint=eastwest;newEdgeStyle={&quot;curved&quot;:0,&quot;rounded&quot;:0};" parent="1" vertex="1">
          <mxGeometry x="2825" y="664" width="10" height="131" as="geometry" />
        </mxCell>
        <mxCell id="KyZ3c5nSkbDw5dYKaF3H-82" value="" style="html=1;points=[[0,0,0,0,5],[0,1,0,0,-5],[1,0,0,0,5],[1,1,0,0,-5]];perimeter=orthogonalPerimeter;outlineConnect=0;targetShapes=umlLifeline;portConstraint=eastwest;newEdgeStyle={&quot;curved&quot;:0,&quot;rounded&quot;:0};" parent="1" vertex="1">
          <mxGeometry x="3294" y="704" width="10" height="27" as="geometry" />
        </mxCell>
        <mxCell id="KyZ3c5nSkbDw5dYKaF3H-83" value="" style="html=1;points=[[0,0,0,0,5],[0,1,0,0,-5],[1,0,0,0,5],[1,1,0,0,-5]];perimeter=orthogonalPerimeter;outlineConnect=0;targetShapes=umlLifeline;portConstraint=eastwest;newEdgeStyle={&quot;curved&quot;:0,&quot;rounded&quot;:0};" parent="1" vertex="1">
          <mxGeometry x="3294" y="749" width="10" height="27" as="geometry" />
        </mxCell>
        <mxCell id="KyZ3c5nSkbDw5dYKaF3H-84" value="setHasPadsOn(true)" style="html=1;verticalAlign=bottom;endArrow=block;curved=0;rounded=0;" parent="1" edge="1">
          <mxGeometry width="80" relative="1" as="geometry">
            <mxPoint x="2835" y="718.26" as="sourcePoint" />
            <mxPoint x="3294" y="718.26" as="targetPoint" />
          </mxGeometry>
        </mxCell>
        <mxCell id="KyZ3c5nSkbDw5dYKaF3H-85" value="setImproperPlacement(true)" style="html=1;verticalAlign=bottom;endArrow=block;curved=0;rounded=0;" parent="1" edge="1">
          <mxGeometry x="-0.0004" width="80" relative="1" as="geometry">
            <mxPoint x="2835" y="758.5" as="sourcePoint" />
            <mxPoint x="3294" y="758.5" as="targetPoint" />
            <mxPoint as="offset" />
          </mxGeometry>
        </mxCell>
        <mxCell id="sbf-StYTLUrn-ZnNMCpy-1" value="AEDController" style="shape=umlLifeline;perimeter=lifelinePerimeter;whiteSpace=wrap;html=1;container=1;dropTarget=0;collapsible=0;recursiveResize=0;outlineConnect=0;portConstraint=eastwest;newEdgeStyle={&quot;curved&quot;:0,&quot;rounded&quot;:0};opacity=30;" parent="1" vertex="1">
          <mxGeometry x="1831" y="127" width="100" height="1135" as="geometry" />
        </mxCell>
        <mxCell id="sbf-StYTLUrn-ZnNMCpy-6" value="" style="html=1;points=[[0,0,0,0,5],[0,1,0,0,-5],[1,0,0,0,5],[1,1,0,0,-5]];perimeter=orthogonalPerimeter;outlineConnect=0;targetShapes=umlLifeline;portConstraint=eastwest;newEdgeStyle={&quot;curved&quot;:0,&quot;rounded&quot;:0};" parent="sbf-StYTLUrn-ZnNMCpy-1" vertex="1">
          <mxGeometry x="45" y="279" width="10" height="55" as="geometry" />
        </mxCell>
        <mxCell id="sbf-StYTLUrn-ZnNMCpy-2" value="" style="html=1;points=[[0,0,0,0,5],[0,1,0,0,-5],[1,0,0,0,5],[1,1,0,0,-5]];perimeter=orthogonalPerimeter;outlineConnect=0;targetShapes=umlLifeline;portConstraint=eastwest;newEdgeStyle={&quot;curved&quot;:0,&quot;rounded&quot;:0};" parent="1" vertex="1">
          <mxGeometry x="1398" y="360" width="10" height="50" as="geometry" />
        </mxCell>
        <mxCell id="sbf-StYTLUrn-ZnNMCpy-3" value="getControlSystem()" style="html=1;verticalAlign=bottom;endArrow=block;curved=0;rounded=0;entryX=0;entryY=0;entryDx=0;entryDy=5;" parent="1" source="KyZ3c5nSkbDw5dYKaF3H-14" target="sbf-StYTLUrn-ZnNMCpy-2" edge="1">
          <mxGeometry relative="1" as="geometry">
            <mxPoint x="1328" y="365" as="sourcePoint" />
          </mxGeometry>
        </mxCell>
        <mxCell id="sbf-StYTLUrn-ZnNMCpy-4" value="return AEDController Object" style="html=1;verticalAlign=bottom;endArrow=open;dashed=1;endSize=8;curved=0;rounded=0;" parent="1" edge="1">
          <mxGeometry relative="1" as="geometry">
            <mxPoint x="822" y="392" as="targetPoint" />
            <mxPoint x="1390" y="392" as="sourcePoint" />
            <Array as="points">
              <mxPoint x="1236" y="392" />
            </Array>
          </mxGeometry>
        </mxCell>
        <mxCell id="sbf-StYTLUrn-ZnNMCpy-5" value="alt" style="shape=umlFrame;whiteSpace=wrap;html=1;pointerEvents=0;" parent="1" vertex="1">
          <mxGeometry x="595" y="477" width="1340" height="648" as="geometry" />
        </mxCell>
        <mxCell id="sbf-StYTLUrn-ZnNMCpy-7" value="getCurrentStep()" style="html=1;verticalAlign=bottom;endArrow=block;curved=0;rounded=0;" parent="1" edge="1">
          <mxGeometry width="80" relative="1" as="geometry">
            <mxPoint x="821" y="429" as="sourcePoint" />
            <mxPoint x="1877.5" y="429" as="targetPoint" />
          </mxGeometry>
        </mxCell>
        <mxCell id="sbf-StYTLUrn-ZnNMCpy-8" value="return currentStep" style="html=1;verticalAlign=bottom;endArrow=open;dashed=1;endSize=8;curved=0;rounded=0;" parent="1" edge="1">
          <mxGeometry relative="1" as="geometry">
            <mxPoint x="1874" y="456.9999999999998" as="sourcePoint" />
            <mxPoint x="819" y="456.9999999999998" as="targetPoint" />
          </mxGeometry>
        </mxCell>
        <mxCell id="sbf-StYTLUrn-ZnNMCpy-9" value="currentStep &amp;gt; POWER_OFF" style="text;html=1;align=center;verticalAlign=middle;resizable=0;points=[];autosize=1;strokeColor=none;fillColor=none;labelBackgroundColor=#666666;" parent="1" vertex="1">
          <mxGeometry x="729" y="498" width="170" height="26" as="geometry" />
        </mxCell>
        <mxCell id="u04EtVT_7AKx4bu0mQWd-1" value="&lt;font style=&quot;font-size: 55px;&quot;&gt;Use Case 2: Electrode Placement&lt;/font&gt;" style="rounded=1;whiteSpace=wrap;html=1;" vertex="1" parent="1">
          <mxGeometry x="237" y="-45" width="865" height="73" as="geometry" />
        </mxCell>
      </root>
    </mxGraphModel>
  </diagram>
</mxfile>
